<mxfile host="app.diagrams.net" modified="2023-11-17T08:04:32.779Z" agent="Mozilla/5.0 (Windows NT 10.0; Win64; x64) AppleWebKit/537.36 (KHTML, like Gecko) Chrome/119.0.0.0 Safari/537.36" etag="x6xzKz6gStXnlvMGHr_F" version="22.1.2" type="device" pages="3">
  <diagram id="C5RBs43oDa-KdzZeNtuy" name="CalcTriangleSquare">
    <mxGraphModel dx="474" dy="477" grid="1" gridSize="10" guides="1" tooltips="1" connect="1" arrows="1" fold="1" page="1" pageScale="1" pageWidth="827" pageHeight="1169" math="0" shadow="0">
      <root>
        <mxCell id="WIyWlLk6GJQsqaUBKTNV-0" />
        <mxCell id="WIyWlLk6GJQsqaUBKTNV-1" parent="WIyWlLk6GJQsqaUBKTNV-0" />
        <mxCell id="2gL2oOnn0Mg9irfDAm8a-0" value="початок" style="rounded=1;whiteSpace=wrap;html=1;arcSize=50;fontSize=14;" vertex="1" parent="WIyWlLk6GJQsqaUBKTNV-1">
          <mxGeometry x="354" y="20" width="120" height="60" as="geometry" />
        </mxCell>
        <mxCell id="2gL2oOnn0Mg9irfDAm8a-3" value="return 0.5 * Math.Abs(Bx * Cx + Cx * -By)" style="rounded=0;whiteSpace=wrap;html=1;fontSize=14;" vertex="1" parent="WIyWlLk6GJQsqaUBKTNV-1">
          <mxGeometry x="279.5" y="100" width="269" height="60" as="geometry" />
        </mxCell>
        <mxCell id="2gL2oOnn0Mg9irfDAm8a-4" value="" style="endArrow=none;html=1;rounded=0;entryX=0.5;entryY=1;entryDx=0;entryDy=0;exitX=0.5;exitY=0;exitDx=0;exitDy=0;fontSize=14;" edge="1" parent="WIyWlLk6GJQsqaUBKTNV-1" source="2gL2oOnn0Mg9irfDAm8a-3" target="2gL2oOnn0Mg9irfDAm8a-0">
          <mxGeometry width="50" height="50" relative="1" as="geometry">
            <mxPoint x="390" y="300" as="sourcePoint" />
            <mxPoint x="440" y="250" as="targetPoint" />
          </mxGeometry>
        </mxCell>
        <mxCell id="2gL2oOnn0Mg9irfDAm8a-6" value="кінець" style="rounded=1;whiteSpace=wrap;html=1;arcSize=50;fontSize=14;" vertex="1" parent="WIyWlLk6GJQsqaUBKTNV-1">
          <mxGeometry x="354" y="180" width="120" height="60" as="geometry" />
        </mxCell>
        <mxCell id="2gL2oOnn0Mg9irfDAm8a-7" value="" style="endArrow=none;html=1;rounded=0;exitX=0.5;exitY=1;exitDx=0;exitDy=0;entryX=0.5;entryY=0;entryDx=0;entryDy=0;fontSize=14;" edge="1" parent="WIyWlLk6GJQsqaUBKTNV-1" source="2gL2oOnn0Mg9irfDAm8a-3" target="2gL2oOnn0Mg9irfDAm8a-6">
          <mxGeometry width="50" height="50" relative="1" as="geometry">
            <mxPoint x="330" y="150" as="sourcePoint" />
            <mxPoint x="380" y="100" as="targetPoint" />
          </mxGeometry>
        </mxCell>
      </root>
    </mxGraphModel>
  </diagram>
  <diagram id="hcGwzmXe8uZUH9uK7yvZ" name="CalcTriangleSquareByPoints">
    <mxGraphModel dx="401" dy="750" grid="1" gridSize="10" guides="1" tooltips="1" connect="1" arrows="1" fold="1" page="1" pageScale="1" pageWidth="827" pageHeight="1169" math="0" shadow="0">
      <root>
        <mxCell id="0" />
        <mxCell id="1" parent="0" />
        <mxCell id="JpygtmGUlaqw3v9l4kDA-1" value="початок" style="rounded=1;whiteSpace=wrap;html=1;arcSize=50;fontSize=14;" vertex="1" parent="1">
          <mxGeometry x="414" y="10" width="120" height="60" as="geometry" />
        </mxCell>
        <mxCell id="JpygtmGUlaqw3v9l4kDA-2" value="MODULE_A = Math.Abs(a)" style="rounded=0;whiteSpace=wrap;html=1;fontSize=14;" vertex="1" parent="1">
          <mxGeometry x="369" y="100" width="210" height="60" as="geometry" />
        </mxCell>
        <mxCell id="JpygtmGUlaqw3v9l4kDA-5" value="MODULE_B = Math.Abs(B)" style="rounded=0;whiteSpace=wrap;html=1;fontSize=14;" vertex="1" parent="1">
          <mxGeometry x="369" y="190" width="210" height="60" as="geometry" />
        </mxCell>
        <mxCell id="JpygtmGUlaqw3v9l4kDA-6" value="tempSquare, solutionSquare = Int.MaxValue" style="rounded=0;whiteSpace=wrap;html=1;fontSize=14;" vertex="1" parent="1">
          <mxGeometry x="369" y="280" width="210" height="60" as="geometry" />
        </mxCell>
        <mxCell id="JpygtmGUlaqw3v9l4kDA-7" value="" style="endArrow=none;html=1;rounded=0;entryX=0.5;entryY=1;entryDx=0;entryDy=0;exitX=0.5;exitY=0;exitDx=0;exitDy=0;fontSize=14;" edge="1" parent="1" source="JpygtmGUlaqw3v9l4kDA-2" target="JpygtmGUlaqw3v9l4kDA-1">
          <mxGeometry width="50" height="50" relative="1" as="geometry">
            <mxPoint x="370" y="290" as="sourcePoint" />
            <mxPoint x="420" y="240" as="targetPoint" />
          </mxGeometry>
        </mxCell>
        <mxCell id="JpygtmGUlaqw3v9l4kDA-8" value="" style="endArrow=none;html=1;rounded=0;entryX=0.5;entryY=0;entryDx=0;entryDy=0;exitX=0.5;exitY=1;exitDx=0;exitDy=0;fontSize=14;" edge="1" parent="1" source="JpygtmGUlaqw3v9l4kDA-2" target="JpygtmGUlaqw3v9l4kDA-5">
          <mxGeometry width="50" height="50" relative="1" as="geometry">
            <mxPoint x="370" y="290" as="sourcePoint" />
            <mxPoint x="420" y="240" as="targetPoint" />
          </mxGeometry>
        </mxCell>
        <mxCell id="JpygtmGUlaqw3v9l4kDA-9" value="" style="endArrow=none;html=1;rounded=0;exitX=0.5;exitY=0;exitDx=0;exitDy=0;entryX=0.5;entryY=1;entryDx=0;entryDy=0;fontSize=14;" edge="1" parent="1" source="JpygtmGUlaqw3v9l4kDA-6" target="JpygtmGUlaqw3v9l4kDA-5">
          <mxGeometry width="50" height="50" relative="1" as="geometry">
            <mxPoint x="370" y="290" as="sourcePoint" />
            <mxPoint x="420" y="240" as="targetPoint" />
          </mxGeometry>
        </mxCell>
        <mxCell id="JpygtmGUlaqw3v9l4kDA-35" style="edgeStyle=orthogonalEdgeStyle;rounded=0;orthogonalLoop=1;jettySize=auto;html=1;exitX=1;exitY=0.5;exitDx=0;exitDy=0;entryX=0.5;entryY=0;entryDx=0;entryDy=0;fontSize=14;" edge="1" parent="1" source="JpygtmGUlaqw3v9l4kDA-10" target="JpygtmGUlaqw3v9l4kDA-36">
          <mxGeometry relative="1" as="geometry">
            <mxPoint x="470" y="1060" as="targetPoint" />
            <Array as="points">
              <mxPoint x="660" y="390" />
              <mxPoint x="660" y="1010" />
              <mxPoint x="470" y="1010" />
            </Array>
          </mxGeometry>
        </mxCell>
        <mxCell id="JpygtmGUlaqw3v9l4kDA-10" value="x = 0; x &amp;lt;= MODULE_A; x++" style="shape=hexagon;perimeter=hexagonPerimeter2;whiteSpace=wrap;html=1;fixedSize=1;fontSize=14;" vertex="1" parent="1">
          <mxGeometry x="339" y="370" width="270" height="40" as="geometry" />
        </mxCell>
        <mxCell id="JpygtmGUlaqw3v9l4kDA-11" value="" style="endArrow=none;html=1;rounded=0;exitX=0.5;exitY=1;exitDx=0;exitDy=0;entryX=0.5;entryY=0;entryDx=0;entryDy=0;fontSize=14;" edge="1" parent="1" source="JpygtmGUlaqw3v9l4kDA-6" target="JpygtmGUlaqw3v9l4kDA-10">
          <mxGeometry width="50" height="50" relative="1" as="geometry">
            <mxPoint x="510" y="410" as="sourcePoint" />
            <mxPoint x="560" y="360" as="targetPoint" />
          </mxGeometry>
        </mxCell>
        <mxCell id="JpygtmGUlaqw3v9l4kDA-34" style="edgeStyle=orthogonalEdgeStyle;rounded=0;orthogonalLoop=1;jettySize=auto;html=1;entryX=0;entryY=0.5;entryDx=0;entryDy=0;fontSize=14;" edge="1" parent="1" source="JpygtmGUlaqw3v9l4kDA-12" target="JpygtmGUlaqw3v9l4kDA-10">
          <mxGeometry relative="1" as="geometry">
            <mxPoint x="200" y="390" as="targetPoint" />
            <Array as="points">
              <mxPoint x="650" y="450" />
              <mxPoint x="650" y="1000" />
              <mxPoint x="270" y="1000" />
              <mxPoint x="270" y="390" />
            </Array>
          </mxGeometry>
        </mxCell>
        <mxCell id="JpygtmGUlaqw3v9l4kDA-12" value="y = 0; y &amp;lt;= MODULE_B; y++" style="shape=hexagon;perimeter=hexagonPerimeter2;whiteSpace=wrap;html=1;fixedSize=1;fontSize=14;" vertex="1" parent="1">
          <mxGeometry x="339" y="430" width="270" height="40" as="geometry" />
        </mxCell>
        <mxCell id="JpygtmGUlaqw3v9l4kDA-14" value="" style="endArrow=none;html=1;rounded=0;exitX=0.5;exitY=1;exitDx=0;exitDy=0;entryX=0.5;entryY=0;entryDx=0;entryDy=0;fontSize=14;" edge="1" parent="1" source="JpygtmGUlaqw3v9l4kDA-10" target="JpygtmGUlaqw3v9l4kDA-12">
          <mxGeometry width="50" height="50" relative="1" as="geometry">
            <mxPoint x="490" y="400" as="sourcePoint" />
            <mxPoint x="540" y="350" as="targetPoint" />
          </mxGeometry>
        </mxCell>
        <mxCell id="JpygtmGUlaqw3v9l4kDA-15" value="tempSquare = CalcTriangleSquare(MODULE_A, MODULE_B, x,y)" style="rounded=0;whiteSpace=wrap;html=1;fontSize=14;" vertex="1" parent="1">
          <mxGeometry x="314" y="500" width="320" height="60" as="geometry" />
        </mxCell>
        <mxCell id="JpygtmGUlaqw3v9l4kDA-16" value="" style="endArrow=none;html=1;rounded=0;exitX=0.5;exitY=1;exitDx=0;exitDy=0;entryX=0.5;entryY=0;entryDx=0;entryDy=0;fontSize=14;" edge="1" parent="1" source="JpygtmGUlaqw3v9l4kDA-12" target="JpygtmGUlaqw3v9l4kDA-15">
          <mxGeometry width="50" height="50" relative="1" as="geometry">
            <mxPoint x="510" y="360" as="sourcePoint" />
            <mxPoint x="560" y="310" as="targetPoint" />
          </mxGeometry>
        </mxCell>
        <mxCell id="JpygtmGUlaqw3v9l4kDA-33" style="edgeStyle=orthogonalEdgeStyle;rounded=0;orthogonalLoop=1;jettySize=auto;html=1;fontSize=14;exitX=1;exitY=0.5;exitDx=0;exitDy=0;" edge="1" parent="1" source="JpygtmGUlaqw3v9l4kDA-17">
          <mxGeometry relative="1" as="geometry">
            <mxPoint x="474" y="940" as="targetPoint" />
            <Array as="points">
              <mxPoint x="640" y="660" />
              <mxPoint x="640" y="940" />
            </Array>
          </mxGeometry>
        </mxCell>
        <mxCell id="JpygtmGUlaqw3v9l4kDA-17" value="tempSquare != 0 &amp;amp;&amp;amp; tempSquare &amp;lt; solutionSquare&amp;nbsp;" style="rhombus;whiteSpace=wrap;html=1;fontSize=14;" vertex="1" parent="1">
          <mxGeometry x="327.5" y="585" width="293" height="150" as="geometry" />
        </mxCell>
        <mxCell id="JpygtmGUlaqw3v9l4kDA-18" value="" style="endArrow=none;html=1;rounded=0;exitX=0.5;exitY=1;exitDx=0;exitDy=0;entryX=0.5;entryY=0;entryDx=0;entryDy=0;fontSize=14;" edge="1" parent="1" source="JpygtmGUlaqw3v9l4kDA-15" target="JpygtmGUlaqw3v9l4kDA-17">
          <mxGeometry width="50" height="50" relative="1" as="geometry">
            <mxPoint x="580" y="560" as="sourcePoint" />
            <mxPoint x="630" y="510" as="targetPoint" />
          </mxGeometry>
        </mxCell>
        <mxCell id="JpygtmGUlaqw3v9l4kDA-22" value="" style="endArrow=none;html=1;rounded=0;exitX=0.5;exitY=1;exitDx=0;exitDy=0;entryX=0.5;entryY=0;entryDx=0;entryDy=0;fontSize=14;" edge="1" parent="1" source="JpygtmGUlaqw3v9l4kDA-17" target="JpygtmGUlaqw3v9l4kDA-23">
          <mxGeometry width="50" height="50" relative="1" as="geometry">
            <mxPoint x="500" y="660" as="sourcePoint" />
            <mxPoint x="474" y="770" as="targetPoint" />
          </mxGeometry>
        </mxCell>
        <mxCell id="JpygtmGUlaqw3v9l4kDA-23" value="solutionSquare = tempSquare" style="rounded=0;whiteSpace=wrap;html=1;fontSize=14;" vertex="1" parent="1">
          <mxGeometry x="369" y="750" width="210" height="60" as="geometry" />
        </mxCell>
        <mxCell id="JpygtmGUlaqw3v9l4kDA-24" value="Cx = x" style="rounded=0;whiteSpace=wrap;html=1;fontSize=14;" vertex="1" parent="1">
          <mxGeometry x="424" y="830" width="100" height="40" as="geometry" />
        </mxCell>
        <mxCell id="JpygtmGUlaqw3v9l4kDA-25" value="Cy = y" style="rounded=0;whiteSpace=wrap;html=1;fontSize=14;" vertex="1" parent="1">
          <mxGeometry x="421" y="890" width="106" height="40" as="geometry" />
        </mxCell>
        <mxCell id="JpygtmGUlaqw3v9l4kDA-28" value="" style="endArrow=none;html=1;rounded=0;exitX=0.5;exitY=1;exitDx=0;exitDy=0;entryX=0.5;entryY=0;entryDx=0;entryDy=0;fontSize=14;" edge="1" parent="1" source="JpygtmGUlaqw3v9l4kDA-23" target="JpygtmGUlaqw3v9l4kDA-24">
          <mxGeometry width="50" height="50" relative="1" as="geometry">
            <mxPoint x="500" y="890" as="sourcePoint" />
            <mxPoint x="550" y="840" as="targetPoint" />
          </mxGeometry>
        </mxCell>
        <mxCell id="JpygtmGUlaqw3v9l4kDA-29" value="" style="endArrow=none;html=1;rounded=0;exitX=0.5;exitY=1;exitDx=0;exitDy=0;entryX=0.5;entryY=0;entryDx=0;entryDy=0;fontSize=14;" edge="1" parent="1" source="JpygtmGUlaqw3v9l4kDA-24" target="JpygtmGUlaqw3v9l4kDA-25">
          <mxGeometry width="50" height="50" relative="1" as="geometry">
            <mxPoint x="500" y="890" as="sourcePoint" />
            <mxPoint x="550" y="840" as="targetPoint" />
          </mxGeometry>
        </mxCell>
        <mxCell id="JpygtmGUlaqw3v9l4kDA-32" value="" style="endArrow=classic;html=1;rounded=0;exitX=0.5;exitY=1;exitDx=0;exitDy=0;entryX=0;entryY=0.5;entryDx=0;entryDy=0;fontSize=14;" edge="1" parent="1" source="JpygtmGUlaqw3v9l4kDA-25" target="JpygtmGUlaqw3v9l4kDA-12">
          <mxGeometry width="50" height="50" relative="1" as="geometry">
            <mxPoint x="480" y="900" as="sourcePoint" />
            <mxPoint x="530" y="850" as="targetPoint" />
            <Array as="points">
              <mxPoint x="474" y="960" />
              <mxPoint x="280" y="960" />
              <mxPoint x="280" y="450" />
            </Array>
          </mxGeometry>
        </mxCell>
        <mxCell id="JpygtmGUlaqw3v9l4kDA-36" value="Console.WriteLine($&quot;Coordinates of point C equals: ({(a &amp;lt; 0 &amp;amp;&amp;amp; Cx != 0 ? &#39;-&#39; : &#39; &#39;)}{Cx}; {(b &amp;lt; 0 &amp;amp;&amp;amp; Cy != 0 ? &#39;-&#39; : &#39; &#39;)}{Cy})&quot;);" style="rounded=0;whiteSpace=wrap;html=1;fontSize=14;" vertex="1" parent="1">
          <mxGeometry x="224" y="1050" width="500" height="50" as="geometry" />
        </mxCell>
        <mxCell id="d_9o4Xgy9qufNJkykhdH-1" value="кінець" style="rounded=1;whiteSpace=wrap;html=1;arcSize=50;fontSize=14;" vertex="1" parent="1">
          <mxGeometry x="414" y="1130" width="120" height="60" as="geometry" />
        </mxCell>
        <mxCell id="d_9o4Xgy9qufNJkykhdH-2" value="" style="endArrow=none;html=1;rounded=0;exitX=0.5;exitY=1;exitDx=0;exitDy=0;entryX=0.5;entryY=0;entryDx=0;entryDy=0;fontSize=14;" edge="1" parent="1" source="JpygtmGUlaqw3v9l4kDA-36" target="d_9o4Xgy9qufNJkykhdH-1">
          <mxGeometry width="50" height="50" relative="1" as="geometry">
            <mxPoint x="490" y="1010" as="sourcePoint" />
            <mxPoint x="540" y="960" as="targetPoint" />
          </mxGeometry>
        </mxCell>
      </root>
    </mxGraphModel>
  </diagram>
  <diagram id="D_TkBBiLMvCi2XJ1w8T1" name="main">
    <mxGraphModel dx="281" dy="525" grid="1" gridSize="10" guides="1" tooltips="1" connect="1" arrows="1" fold="1" page="1" pageScale="1" pageWidth="827" pageHeight="1169" math="0" shadow="0">
      <root>
        <mxCell id="0" />
        <mxCell id="1" parent="0" />
        <mxCell id="FIGc3ahPfYkUu31fIUGB-1" value="початок" style="rounded=1;whiteSpace=wrap;html=1;arcSize=50;fontSize=14;" vertex="1" parent="1">
          <mxGeometry x="310" y="30" width="120" height="60" as="geometry" />
        </mxCell>
        <mxCell id="FIGc3ahPfYkUu31fIUGB-2" value="CalcTriangleByPointers(a,b)" style="rounded=0;whiteSpace=wrap;html=1;fontSize=14;" vertex="1" parent="1">
          <mxGeometry x="280" y="110" width="180" height="60" as="geometry" />
        </mxCell>
        <mxCell id="FIGc3ahPfYkUu31fIUGB-3" value="" style="endArrow=none;html=1;rounded=0;entryX=0.5;entryY=1;entryDx=0;entryDy=0;exitX=0.5;exitY=0;exitDx=0;exitDy=0;fontSize=14;" edge="1" parent="1" source="FIGc3ahPfYkUu31fIUGB-2" target="FIGc3ahPfYkUu31fIUGB-1">
          <mxGeometry width="50" height="50" relative="1" as="geometry">
            <mxPoint x="360" y="200" as="sourcePoint" />
            <mxPoint x="410" y="150" as="targetPoint" />
          </mxGeometry>
        </mxCell>
        <mxCell id="Lc5O7hBPrEEFBYivPmic-1" value="кінець" style="rounded=1;whiteSpace=wrap;html=1;arcSize=50;fontSize=14;" vertex="1" parent="1">
          <mxGeometry x="310" y="190" width="120" height="60" as="geometry" />
        </mxCell>
        <mxCell id="Lc5O7hBPrEEFBYivPmic-2" value="" style="endArrow=none;html=1;rounded=0;exitX=0.5;exitY=1;exitDx=0;exitDy=0;entryX=0.5;entryY=0;entryDx=0;entryDy=0;fontSize=14;" edge="1" parent="1" source="FIGc3ahPfYkUu31fIUGB-2" target="Lc5O7hBPrEEFBYivPmic-1">
          <mxGeometry width="50" height="50" relative="1" as="geometry">
            <mxPoint x="360" y="150" as="sourcePoint" />
            <mxPoint x="410" y="100" as="targetPoint" />
          </mxGeometry>
        </mxCell>
        <mxCell id="Lc5O7hBPrEEFBYivPmic-3" style="edgeStyle=orthogonalEdgeStyle;rounded=0;orthogonalLoop=1;jettySize=auto;html=1;exitX=0.5;exitY=1;exitDx=0;exitDy=0;fontSize=14;" edge="1" parent="1" source="Lc5O7hBPrEEFBYivPmic-1" target="Lc5O7hBPrEEFBYivPmic-1">
          <mxGeometry relative="1" as="geometry" />
        </mxCell>
      </root>
    </mxGraphModel>
  </diagram>
</mxfile>
